<svg version="1" xmlns="http://www.w3.org/2000/svg" width="933.333" height="933.333" viewBox="0 0 700.000000 700.000000"><path d="M22 65.7v43.8h43.5l.1 275.5c0 274.2 0 275.5 2 280 2.5 5.5 8 10.5 13.1 11.9 2.6.8 87 1.1 270.3 1.1 217.1-.1 267.1-.3 269.5-1.4 5-2.2 9.7-6.8 11.8-11.6 2.1-4.5 2.1-5.3 2.1-280l.1-275.5 21.2-.1c11.7 0 21.5-.3 21.8-.5.5-.5.6-20.4.6-63.2L678 22H22v43.7zm568.4 45.2c.7 2.7.1 521.5-.6 522.6-.4.7-81.6 1-240.5.9H109.5l-.1-262c0-144 0-262.1.2-262.5.1-.3 108.3-.5 240.3-.5 216.2 0 240.1.1 240.5 1.5z"/><path d="M153 371.8v218.8h44V153h-44v218.8zM240.9 154.2c0 .7-.2 30-.2 65.1-.1 41 .2 64.1.8 64.5 1.7 1.1 42.5.8 42.8-.3.1-.6.2-30 .2-65.5l-.1-64.5-21.7-.3c-17-.2-21.7 0-21.8 1zM328.2 218.5c0 36 .3 65.5.7 65.6.3.1 10.1.2 21.8.2l21.1.2.1-65.7v-65.7L350 153l-21.9-.1.1 65.6zM415.9 153.2c-.4 1.1-.3 130.8.1 130.9.3.1 9.9.2 21.3.2 17.7.2 21 0 21.6-1.3.5-1.1.7-122 .2-128.8-.1-.9-5.1-1.2-21.6-1.2-11.8 0-21.5.1-21.6.2zM503 371.9v218.8h22l22-.1V153h-44v218.9zM240.8 329.3c-.2.7-.3 20.3-.3 43.7l.1 42.5 109 .1c59.9 0 109.1-.3 109.4-.7.3-.4.5-20 .4-43.6v-42.8l-109.1-.2c-83.6-.1-109.2.1-109.5 1zM240.9 460.4c-.4 4.6-.3 129 .1 129.5.3.4 10 .7 21.5.8 16.3 0 21.1-.3 21.5-1.3.3-.7.5-30.3.5-65.6l-.1-64.3-21.7-.1c-14.8 0-21.7.3-21.8 1zM328.5 459.9c-.2.4-.3 29.9-.3 65.6v65.1l21.6-.1h21.7v-131l-21.3-.1c-11.7 0-21.5.2-21.7.5zM415.8 460.9c-.2.9-.3 30.4-.3 65.6l.1 64 20.4.2c11.3.1 21.2-.1 22-.3 1.3-.3 1.5-8.3 1.3-64.6 0-35.4-.2-64.8-.2-65.4-.1-.7-7.3-1-21.5-1-18.8-.1-21.5.1-21.8 1.5z"/></svg>